<?xml version="1.0" standalone="no"?>
<!DOCTYPE svg PUBLIC "-//W3C//DTD SVG 20010904//EN"
 "http://www.w3.org/TR/2001/REC-SVG-20010904/DTD/svg10.dtd">
<svg version="1.0" xmlns="http://www.w3.org/2000/svg"
 width="541.000000pt" height="541.000000pt" viewBox="0 0 541.000000 541.000000"
 preserveAspectRatio="xMidYMid meet">
<metadata>
Created by potrace 1.11, written by Peter Selinger 2001-2013
</metadata>
<g transform="translate(0.000000,541.000000) scale(0.100000,-0.100000)"
fill="#000000" stroke="none">
<path d="M0 2705 l0 -2705 2705 0 2705 0 0 2705 0 2705 -2705 0 -2705 0 0
-2705z m3338 1427 l2 -272 -682 2 -683 3 -3 260 c-1 143 0 265 3 272 3 11 141
13 682 11 l678 -3 3 -273z m-358 -541 c247 -56 445 -161 621 -329 201 -191
327 -417 386 -692 25 -118 25 -391 0 -507 -113 -524 -501 -914 -1020 -1024
-133 -29 -370 -31 -499 -6 -398 79 -740 333 -920 683 -58 113 -90 203 -119
335 -31 136 -33 378 -6 509 87 410 334 737 697 920 108 54 252 103 355 119 39
6 81 13 95 15 62 11 329 -4 410 -23z"/>
<path d="M2535 3084 c-91 -19 -254 -100 -329 -162 -121 -101 -223 -260 -263
-412 -27 -101 -24 -302 5 -405 35 -119 95 -226 182 -318 168 -180 380 -267
615 -254 362 21 651 267 731 623 12 57 15 104 11 192 -6 137 -23 207 -77 317
-160 321 -519 493 -875 419z"/>
</g>
</svg>
