<svg xmlns="http://www.w3.org/2000/svg" width="154.02" height="41.2" viewBox="0 0 154.02 41.2">
  <title>bloma-logo_2</title>
  <g id="Layer_2" data-name="Layer 2">
    <g id="Layer_1-2" data-name="Layer 1">
      <g>
        <path d="M16,41c-3.59,0-7.53-1.25-9.35-3.36l-.46,2.4c0,.17,0,.22-.22.22H.17A.15.15,0,0,1,0,40.13V.17A.15.15,0,0,1,.17,0H6.84A.15.15,0,0,1,7,.17V15c2.22-2.39,5.42-3.47,9.58-3.47,8,0,13.22,7.41,13.22,14.76S24.68,41,16,41Zm6.55-14.76c0-4.56-2.33-8.89-7.29-8.89-5.42,0-8.5,3-8.5,6.55v4.39c0,3.71,3.42,6.9,7.87,6.9C20.35,35.23,22.57,30.56,22.57,26.28Z" style="fill: #fff"/>
        <path d="M33.05,40.13V.17A.15.15,0,0,1,33.22,0h6.67c.12,0,.18.06.18.17v40c0,.12-.06.17-.18.17H33.22A.15.15,0,0,1,33.05,40.13Z" style="fill: #fff"/>
        <path d="M122.29,40.13a.15.15,0,0,1-.17.17h-6.67a.15.15,0,0,1-.17-.17V24.51c0-5.36-2.39-6.84-5.47-6.84-4,0-6.73,2-6.73,7.18V40.13a.15.15,0,0,1-.17.17H96.24a.15.15,0,0,1-.17-.17V24.51c0-5.36-2.4-6.84-5.47-6.84-4,0-6.73,1.94-6.73,7.18V40.13a.15.15,0,0,1-.17.17H77c-.12,0-.17,0-.17-.17V12.37A.15.15,0,0,1,77,12.2H83.7a.15.15,0,0,1,.17.17v3.14c1.6-2.57,4.39-4,8.66-4A9.65,9.65,0,0,1,101,15.85c3-3.76,6.5-4.33,10.78-4.33,5.81,0,10.54,4.61,10.54,12.48Z" style="fill: #fff"/>
        <path d="M124.77,26.22c0-7.29,5.82-14.76,13.68-14.76a12.39,12.39,0,0,1,8.55,3V12.37a.15.15,0,0,1,.17-.17h6.67c.12,0,.18.06.18.17V40.13c0,.12-.06.17-.18.17h-6.67a.15.15,0,0,1-.17-.17V37.51C144.55,40,141.87,41,137.88,41,130.36,41,124.77,33.58,124.77,26.22Zm22.46,2.34V24.17c0-3.7-3-6.9-7.41-6.9-5.47,0-7.81,4.68-7.81,9,0,4.56,2.51,8.9,7.18,8.9C144.61,35.12,147.23,32.09,147.23,28.56Z" style="fill: #fff"/>
        <path d="M58.59,17.2a9,9,0,1,1-9,9,9,9,0,0,1,9-9m0-6a15,15,0,1,0,15,15,15,15,0,0,0-15-15Z" style="fill: #fff"/>
        <rect x="50.09" y="2.17" width="15.85" height="6.33" rx="0.17" style="fill: #fff"/>
      </g>
    </g>
  </g>
</svg>
