<svg xmlns="http://www.w3.org/2000/svg" viewBox="0 0 154.02 56.58"><defs><style>.cls-1{fill:#fff;}.cls-2{fill:#f36;}</style></defs><title>bloma-alpha-logo</title><g id="Layer_2" data-name="Layer 2"><g id="Layer_1-2" data-name="Layer 1"><g id="Layer_1-2-2" data-name="Layer 1-2"><path class="cls-1" d="M16,41c-3.59,0-7.53-1.25-9.35-3.36L6.19,40c0,.17,0,.22-.22.22H.17A.15.15,0,0,1,0,40.13H0V.17A.16.16,0,0,1,.13,0H6.84A.15.15,0,0,1,7,.14V15c2.22-2.39,5.42-3.47,9.58-3.47,8,0,13.22,7.41,13.22,14.76S24.68,41,16,41Zm6.55-14.76c0-4.56-2.33-8.89-7.29-8.89-5.42,0-8.5,3-8.5,6.55v4.39c0,3.71,3.42,6.9,7.87,6.9,5.72,0,7.94-4.63,7.94-8.91Z"/><path class="cls-1" d="M33.05,40.13V.17A.16.16,0,0,1,33.18,0h6.71c.12,0,.18.06.18.17v40c0,.12-.06.17-.18.17H33.22a.15.15,0,0,1-.18-.11A.17.17,0,0,1,33.05,40.13Z"/><path class="cls-1" d="M122.29,40.13a.15.15,0,0,1-.13.17h-6.71a.15.15,0,0,1-.17-.13V24.51c0-5.36-2.39-6.84-5.47-6.84-4,0-6.73,2-6.73,7.18V40.13a.15.15,0,0,1-.13.17H96.24a.15.15,0,0,1-.17-.13V24.51c0-5.36-2.4-6.84-5.47-6.84-4,0-6.73,1.94-6.73,7.18V40.13a.15.15,0,0,1-.13.17H77c-.12,0-.17,0-.17-.17V12.37A.16.16,0,0,1,77,12.2H83.7a.16.16,0,0,1,.17.13v3.18c1.6-2.57,4.39-4,8.66-4A9.66,9.66,0,0,1,101,15.85c3-3.76,6.5-4.33,10.78-4.33,5.81,0,10.54,4.61,10.54,12.48Z"/><path class="cls-1" d="M124.77,26.22c0-7.29,5.82-14.76,13.68-14.76a12.43,12.43,0,0,1,8.55,3V12.37a.16.16,0,0,1,.13-.17h6.71c.12,0,.18.06.18.17V40.13c0,.12-.06.17-.18.17h-6.67a.15.15,0,0,1-.17-.13V37.51C144.55,40,141.87,41,137.88,41,130.36,41,124.77,33.58,124.77,26.22Zm22.46,2.34V24.17c0-3.7-3-6.9-7.41-6.9-5.47,0-7.81,4.68-7.81,9,0,4.56,2.51,8.9,7.18,8.9C144.61,35.12,147.23,32.09,147.23,28.56Z"/><path class="cls-1" d="M58.59,17.2a9,9,0,1,1-9,9,9,9,0,0,1,9-9m0-6a15,15,0,1,0,15,15h0A15,15,0,0,0,58.59,11.2Z"/><rect class="cls-1" x="50.09" y="2.17" width="15.85" height="6.33" rx="0.17"/></g><path class="cls-2" d="M99.67,54.68l-.54,1.9H96L99.55,46h3.82l3.55,10.58h-3.13l-.54-1.9Zm2.72-3.06c-.31-1.08-.61-2.27-.91-3.57h0c-.31,1.36-.62,2.55-.92,3.57l-.2.73h2.27Z"/><path class="cls-2" d="M117.05,54.09v2.49h-7.56V46h3v8.09Z"/><path class="cls-2" d="M127.3,47a3.86,3.86,0,0,1,0,5.31,4.51,4.51,0,0,1-3.14,1h-1.5v3.34h-3V46h4.48A4.56,4.56,0,0,1,127.3,47Zm-4.64,3.94h1.08q1.56,0,1.56-1.29c0-.85-.52-1.28-1.56-1.28h-1.08Z"/><path class="cls-2" d="M137.57,56.58V52.39h-3.46v4.19h-3V46h3v3.89h3.46V46h3V56.58Z"/><path class="cls-2" d="M146.77,54.68l-.54,1.9H143.1L146.65,46h3.82L154,56.58h-3.14l-.53-1.9Zm2.72-3.06c-.31-1.08-.61-2.27-.91-3.57h0c-.32,1.36-.62,2.55-.92,3.57l-.21.73h2.28Z"/></g></g></svg>