<svg xmlns="http://www.w3.org/2000/svg" width="160" height="46.3" viewBox="0 0 160 46.3">
  <title>logo-white</title>
  <g id="Layer_2" data-name="Layer 2">
    <g id="Layer_1-2" data-name="Layer 1">
      <g id="Layer_2-2" data-name="Layer 2">
        <g id="Layer_1-2-2" data-name="Layer 1-2">
          <path d="M156.75,3.25v39.8H3.25V3.25h153.5M160,0H0V46.3H160ZM22.16,16.21c2.76,0,5.28,1.43,5.54,4.78H24.45a2.2,2.2,0,0,0-2.12-2.27,1.82,1.82,0,0,0-.33,0A2.36,2.36,0,0,0,19.55,21c0,.11,0,.22,0,.33V25a2.38,2.38,0,0,0,2.15,2.59H22c1.45,0,2.29-.6,2.49-2.37h3.26c-.32,3.31-2.68,4.89-5.6,4.89-3.95,0-6-2.8-6-6.86C16.2,18.86,18.52,16.21,22.16,16.21Zm8.69.31h7.41v2.55H34.1V29.78H30.85Zm15.22-.31c3.59,0,5.93,2.7,5.93,6.34v1.64H43.47v.88a2.46,2.46,0,0,0,2.43,2.5h.2a2.35,2.35,0,0,0,2.55-2.13H51.9c-.42,2.94-2.63,4.65-5.83,4.65-3.77,0-6-2.8-6-7S42.48,16.21,46.07,16.21Zm-2.6,5.46h5.21V21.2a2.61,2.61,0,0,0-5.21,0Zm19.29-1a1.82,1.82,0,0,0-1.61-2,1.85,1.85,0,0,0-.47,0c-1.3,0-2.24.65-2.24,1.87H55.19c.1-2.89,2.44-4.39,5.62-4.39S66,17.79,66,20.76v6.5h2.23v2.52H63.07V27.73H63a4.16,4.16,0,0,1-4,2.36,4,4,0,0,1-4.22-3.77V26c0-2.13,1.56-3.9,4.34-4.13l3.67-.32Zm0,3.84V24l-3.9.34c-.52.05-.73.34-.73.86v1.15c0,.78.8,1.19,1.95,1.19a2.75,2.75,0,0,0,2.69-2.81,1.09,1.09,0,0,0,0-.18Zm12.16,2.71h3.3v2.52H71.67V19H69V16.52h2.63V12.1h3.25v4.42h3.3V19h-3.3ZM84.64,15H81.28V12.1h3.36Zm-3.3,14.8V16.52h3.25V29.78Zm12.55-3.64,3-9.62h3.43L95.64,29.78H92.07L87.42,16.52H90.9l2.89,9.62Zm13.77-9.93c3.59,0,5.93,2.7,5.93,6.34v1.64h-8.53v.88a2.47,2.47,0,0,0,2.41,2.51h.22a2.35,2.35,0,0,0,2.55-2.13h3.25c-.42,2.94-2.63,4.65-5.83,4.65-3.77,0-6-2.8-6-7s2.41-6.9,6-6.9Zm-2.6,5.46h5.2V21.2a2.6,2.6,0,0,0-5.2,0Zm15.52,8.11h-3.75V26h3.75Zm11.5-9.07a1.82,1.82,0,0,0-1.61-2,1.85,1.85,0,0,0-.47,0c-1.3,0-2.24.65-2.24,1.87h-3.25c.1-2.89,2.45-4.39,5.62-4.39s5.15,1.58,5.15,4.55v6.5h2.24v2.52h-5.13V27.73h-.11a4.13,4.13,0,0,1-4,2.36,4,4,0,0,1-4.21-3.78V26c0-2.13,1.56-3.9,4.34-4.13l3.67-.32Zm0,3.84V24l-3.9.34c-.52.05-.73.34-.73.86v1.15c0,.78.81,1.19,2,1.19a2.75,2.75,0,0,0,2.64-2.86s0-.09,0-.13ZM143.54,15h-3.36V12.1h3.36Zm-3.31,14.8V16.52h3.25V29.78Z" style="fill: #fff"/>
        </g>
      </g>
    </g>
  </g>
</svg>
