<?xml version="1.0" encoding="UTF-8"?>
<svg width="143px" height="21px" viewBox="0 0 143 21" version="1.1" xmlns="http://www.w3.org/2000/svg" xmlns:xlink="http://www.w3.org/1999/xlink">
    <!-- Generator: Sketch 49.3 (51167) - http://www.bohemiancoding.com/sketch -->
    <title>logo</title>
    <desc>Created with Sketch.</desc>
    <defs></defs>
    <g id="Material-Design-Stickersheet" stroke="none" stroke-width="1" fill="none" fill-rule="evenodd">
        <g id="Desktop-HD-Copy" transform="translate(-129.000000, -20.000000)" fill="#000000" fill-rule="nonzero">
            <g id="logo" transform="translate(129.000000, 20.000000)">
                <path d="M7.37451673,5.08713014 C10.4377798,5.08713014 13.2346721,6.67425556 13.5232404,10.3923466 L9.91613715,10.3923466 C9.94016531,9.68219511 9.65365523,8.99680311 9.13137145,8.51502297 C8.60908767,8.03324283 7.9028448,7.80287089 7.19693626,7.88402248 C6.43824099,7.85428811 5.70397603,8.15523712 5.18439151,8.70889276 C4.66480699,9.2625484 4.41103703,10.0144235 4.48883416,10.7697051 L4.48883416,14.842957 C4.41763753,15.6025008 4.67829334,16.3557364 5.20372193,16.9088192 C5.72915051,17.4619019 6.46803822,17.7608173 7.2302326,17.7286396 C8.83955558,17.7286396 9.77185302,17.0627128 9.99382861,15.0982289 L13.6120306,15.0982289 C13.2568697,18.7719248 10.6375578,20.5255319 7.39671429,20.5255319 C3.01269653,20.5255319 0.737446809,17.4178738 0.737446809,12.9117694 C0.759644367,8.02830661 3.33456113,5.08713014 7.37451673,5.08713014 Z M17.0193558,5.43119229 L25.2435511,5.43119229 L25.2435511,8.26138097 L20.626459,8.26138097 L20.626459,20.1481734 L17.0193558,20.1481734 L17.0193558,5.43119229 Z M33.9116976,5.08713014 C37.8961594,5.08713014 40.4932737,8.08380051 40.4932737,12.1237561 L40.4932737,13.9439559 L31.0260151,13.9439559 L31.0260151,14.9206485 C31.0151154,15.6853178 31.3241195,16.4197816 31.8784028,16.9466669 C32.4326861,17.4735521 33.1818581,17.7449592 33.944994,17.6953432 C35.3792226,17.8236896 36.6461092,16.7654667 36.7751827,15.3313033 L40.3822859,15.3313033 C39.9161372,18.5943443 37.463307,20.4922356 33.9116976,20.4922356 C29.7274579,20.4922356 27.2524302,17.3845774 27.2524302,12.7230902 C27.2524302,8.06160295 29.9272359,5.08713014 33.9116976,5.08713014 Z M31.0260151,11.1470635 L36.808479,11.1470635 L36.808479,10.6254209 C36.713804,9.09809832 35.4475012,7.90785994 33.917247,7.90785994 C32.3869929,7.90785994 31.12069,9.09809832 31.0260151,10.6254209 L31.0260151,11.1470635 Z M52.43556,10.0371856 C52.5045931,9.41372777 52.2800721,8.79357804 51.8279165,8.35881305 C51.3757609,7.92404806 50.7472865,7.72400983 50.127014,7.81742981 C48.6841727,7.81742981 47.6408874,8.53885045 47.6408874,9.8929015 L44.0337842,9.8929015 C44.144772,6.68535433 46.7418863,5.02053746 50.2712981,5.02053746 C53.8007098,5.02053746 56.0315645,6.84073724 56.0315645,10.1370746 L56.0315645,17.3512811 L58.5065922,17.3512811 L58.5065922,20.1481734 L52.7796222,20.1481734 L52.7796222,17.8729237 L52.6686344,17.8729237 C51.8616224,19.5698605 50.104708,20.60644 48.2291227,20.4922356 C46.9924282,20.5607156 45.7833531,20.1094506 44.8939461,19.2474425 C44.0045391,18.3854343 43.5156751,17.1910663 43.5454379,15.9528349 C43.5454379,13.588795 45.2768475,11.624311 48.3623081,11.3690391 L52.43556,11.0138782 L52.43556,10.0371856 Z M52.43556,14.2991168 L52.43556,13.7330791 L48.1070362,14.1104376 C47.5298996,14.1659315 47.2968253,14.4877961 47.2968253,15.0649326 L47.2968253,16.3412922 C47.2968253,17.206997 48.1847276,17.6620469 49.4610872,17.6620469 C50.3053336,17.6437913 51.104289,17.2765814 51.6679128,16.6477623 C52.2315366,16.0189432 52.5094543,15.1847164 52.43556,14.3435119 L52.43556,14.2991168 Z M65.9316754,17.306886 L69.5942726,17.306886 L69.5942726,20.1037783 L62.3245722,20.1037783 L62.3245722,8.18368952 L59.3611982,8.18368952 L59.3611982,5.43119229 L62.2801771,5.43119229 L62.2801771,0.525531915 L65.8872803,0.525531915 L65.8872803,5.43119229 L69.5498774,5.43119229 L69.5498774,8.18368952 L65.8872803,8.18368952 L65.9316754,17.306886 Z M76.7196888,3.74417786 L72.990499,3.74417786 L72.990499,0.525531915 L76.7196888,0.525531915 L76.7196888,3.74417786 Z M73.0570916,20.170371 L73.0570916,5.43119229 L76.6641949,5.43119229 L76.6641949,20.1481734 L73.0570916,20.170371 Z M86.9860595,16.1304154 L90.3156932,5.45338985 L94.1225744,5.45338985 L88.9283458,20.1481734 L84.9660817,20.1481734 L79.8051494,5.43119229 L83.6675245,5.43119229 L86.8750717,16.1082178 L86.9860595,16.1304154 Z M102.269078,5.1093277 C106.25354,5.1093277 108.850654,8.10599806 108.850654,12.1459537 L108.850654,13.9661534 L99.3833958,13.9661534 L99.3833958,14.942846 C99.3691029,15.7085546 99.6770574,16.4450637 100.232134,16.9727034 C100.787211,17.500343 101.538373,17.7705982 102.302375,17.7175408 C103.736603,17.8458871 105.00349,16.7876642 105.132563,15.3535008 L108.739667,15.3535008 C108.273518,18.6165419 105.820688,20.5144331 102.269078,20.5144331 C98.0848386,20.5144331 95.6098108,17.406775 95.6098108,12.7452877 C95.6098108,8.08380051 98.2846166,5.08713014 102.269078,5.08713014 L102.269078,5.1093277 Z M99.3833958,11.1692611 L105.154761,11.1692611 L105.154761,10.6254209 C105.154761,9.03170245 103.862797,7.73973835 102.269078,7.73973835 C100.67536,7.73973835 99.3833958,9.03170245 99.3833958,10.6254209 L99.3833958,11.1692611 Z M116.608701,20.170371 L112.446659,20.170371 L112.446659,15.9528349 L116.608701,15.9528349 L116.608701,20.170371 Z M129.372297,10.1037783 C129.44133,9.48032044 129.216809,8.86017072 128.764653,8.42540573 C128.312498,7.99064073 127.684023,7.79060251 127.063751,7.88402248 C125.62091,7.88402248 124.577624,8.60544312 124.577624,9.95949418 L120.970521,9.95949418 C121.081509,6.75194701 123.689722,5.08713014 127.208035,5.08713014 C130.726348,5.08713014 132.923906,6.84073724 132.923906,10.1370746 L132.923906,17.3512811 L135.410033,17.3512811 L135.410033,20.1481734 L129.716359,20.1481734 L129.716359,17.8729237 L129.594273,17.8729237 C128.789628,19.5720243 127.031095,20.6095589 125.154761,20.4922356 C123.919936,20.5575074 122.71384,20.1048155 121.82692,19.2431753 C120.939999,18.3815351 120.452629,17.1890303 120.482175,15.9528349 C120.482175,13.588795 122.213584,11.624311 125.299045,11.3690391 L129.372297,11.0138782 L129.372297,10.1037783 Z M129.372297,14.3657095 L129.372297,13.7330791 L125.043773,14.1104376 C124.466637,14.1659315 124.233562,14.4877961 124.233562,15.0649326 L124.233562,16.3412922 C124.233562,17.206997 125.132563,17.6620469 126.453318,17.6620469 C127.287777,17.6288499 128.072187,17.2551812 128.623748,16.6281215 C129.175309,16.0010618 129.44584,15.1753861 129.372297,14.3435119 L129.372297,14.3657095 Z M142.091498,3.74417786 L138.362308,3.74417786 L138.362308,0.525531915 L142.091498,0.525531915 L142.091498,3.74417786 Z M138.417802,20.170371 L138.417802,5.43119229 L142.024905,5.43119229 L142.024905,20.1481734 L138.417802,20.170371 Z" id="Shape"></path>
            </g>
        </g>
    </g>
</svg>