<svg xmlns="http://www.w3.org/2000/svg" width="28" height="18" viewBox="0 0 28 18">
  <title>icon-dm-visibilities</title>
  <g id="Layer_2" data-name="Layer 2">
    <g id="Layer_1-2" data-name="Layer 1">
      <g id="Page-1">
        <g id="direct-manipulation-background">
          <g id="Group-20" style="opacity: 0.5028831958770752">
            <g id="Group-6">
              <path id="Fill-1" d="M14,18A15.51,15.51,0,0,1,2.63,12.91,1,1,0,0,1,4.1,11.55,13.5,13.5,0,0,0,14,16,13.93,13.93,0,0,0,25.84,9,14,14,0,0,0,14,2,14,14,0,0,0,1.87,9.49a1,1,0,0,1-1.74-1A16,16,0,0,1,14,0,16,16,0,0,1,27.87,8.51a1,1,0,0,1,0,1A16,16,0,0,1,14,18" style="fill: #fff;fill-rule: evenodd"/>
              <path id="Fill-4" d="M14,6a3,3,0,1,0,3,3,3,3,0,0,0-3-3m0,8a5,5,0,1,1,5-5,5,5,0,0,1-5,5" style="fill: #fff;fill-rule: evenodd"/>
            </g>
          </g>
        </g>
      </g>
    </g>
  </g>
</svg>
