<svg style="enable-background:new 0 0 128 128;" version="1.1" viewBox="0 0 128 128" xml:space="preserve" xmlns="http://www.w3.org/2000/svg" xmlns:xlink="http://www.w3.org/1999/xlink">
    <g>
        <path fill="#FFFFFF" d="M126,64h-12H14H2c-1.1045113,0-2,0.8955002-2,2s0.8954887,2,2,2h58.6991882L50.4647865,87.464798   C49.3788872,89.4179993,50.2597885,91,52.4315872,91h23.1368027c2.1717987,0,3.0526962-1.5820007,1.9667969-3.535202L67.3007889,68   H126c1.1044846,0,2-0.8955002,2-2S127.1044846,64,126,64z M55.2284889,87L64,70.3183975L72.7714844,87H55.2284889z"/>
        <path fill="#FFFFFF" d="M28,50c0-7.7313995-6.2686119-14-14-14C6.2685885,36,0,42.2686005,0,50s6.2685885,14,14,14   C21.7313881,64,28,57.7313995,28,50z M14,60C8.486289,60,4,55.5136986,4,50s4.486289-10,10-10c5.513689,0,10,4.4863014,10,10   S19.513689,60,14,60z"/>
        <path fill="#FFFFFF" d="M128,50c0-7.7313995-6.2686157-14-14-14c-7.7314148,0-14,6.2686005-14,14s6.2685852,14,14,14   C121.7313843,64,128,57.7313995,128,50z M114,60c-5.5137177,0-10-4.4863014-10-10s4.4862823-10,10-10   c5.5136871,0,10,4.4863014,10,10S119.5136871,60,114,60z"/>
    </g>
</svg>