<svg xmlns="http://www.w3.org/2000/svg" width="78.99" height="78.99" viewBox="0 0 78.99 78.99">
  <title>icon-dm-foreground-img</title>
  <g id="Layer_2" data-name="Layer 2">
    <g id="Unite">
      <g>
        <g>
          <path d="M76,24.33H54.66V3a3,3,0,0,0-3-3H3A3,3,0,0,0,0,3V29L15.29,15,34.86,33l8.72-8L54.66,35.17V30.33H73V73H30.33V54.66H51.66a2.93,2.93,0,0,0,1.7-.53L15.29,19,0,33.1l0,0V51.66a3,3,0,0,0,3,3H24.33V76a3,3,0,0,0,3,3H76a3,3,0,0,0,3-3V27.33A3,3,0,0,0,76,24.33Z" style="fill: #fff"/>
          <polygon points="37.07 35.03 54.66 51.25 54.66 39.25 43.58 29.04 37.07 35.03" style="fill: #fff"/>
        </g>
        <path d="M34.93,8.89A6.07,6.07,0,1,0,41,15,6.07,6.07,0,0,0,34.93,8.89Zm0,10.13A4.07,4.07,0,1,1,39,15,4.06,4.06,0,0,1,34.93,19Z" style="fill: #fff"/>
      </g>
    </g>
  </g>
</svg>
