<svg xmlns="http://www.w3.org/2000/svg" width="28" height="20" viewBox="0 0 28 20">
  <title>Asset 1</title>
  <g id="Layer_2" data-name="Layer 2">
    <g id="Layer_1-2" data-name="Layer 1">
      <path d="M2,4H2A2,2,0,0,0,2,0H2A2,2,0,0,0,2,4ZM2,8H2a2,2,0,0,0,0,4H2A2,2,0,0,0,2,8Zm0,8H2a2,2,0,0,0,0,4H2a2,2,0,0,0,0-4ZM10,4h0a2,2,0,0,0,0-4h0a2,2,0,0,0,0,4Zm0,4h0a2,2,0,0,0,0,4h0a2,2,0,0,0,0-4Zm0,8h0a2,2,0,0,0,0,4h0a2,2,0,0,0,0-4ZM18,4h0a2,2,0,0,0,0-4h0a2,2,0,0,0,0,4Zm0,4h0a2,2,0,0,0,0,4h0a2,2,0,0,0,0-4Zm0,8h0a2,2,0,0,0,0,4h0a2,2,0,0,0,0-4ZM26,4h0a2,2,0,0,0,0-4h0a2,2,0,0,0,0,4Zm0,4h0a2,2,0,0,0,0,4h0a2,2,0,0,0,0-4Zm0,8h0a2,2,0,0,0,0,4h0a2,2,0,0,0,0-4Z" style="fill: #fff"/>
    </g>
  </g>
</svg>
