<svg xmlns="http://www.w3.org/2000/svg" width="400" height="198" viewBox="0 0 400 198">
  <title>sportz-logo-white</title>
  <g id="Layer_2" data-name="Layer 2">
    <g id="Layer_1-2" data-name="Layer 1">
      <g>
        <path d="M213.63,143.88C94.46,166.34,35,187.27,0,73.24A243.33,243.33,0,0,0,3.47,100.7c24,129.35,92,100.67,220.23,76.49s195.48-21,171.5-150.32A240.07,240.07,0,0,0,388.6,0C396.85,119.07,332.79,121.42,213.63,143.88Z" style="fill: #fff"/>
        <g>
          <path d="M86.52,61.31c-1.9-4-5.62-6.75-8.85-6.75-2.23,0-5,1.67-5,4.5,0,2.42,2.23,4,6.28,7.51,4.39,3.83,6.29,7.67,6.29,12.51,0,12.92-10,25-23.49,25a29.63,29.63,0,0,1-12.24-2.58l3.06-19.68c2,3.92,5.71,7,9.59,7,2.65,0,5.71-1.75,5.71-5.08,0-1.92-1.24-3.26-3.39-5.09-4.71-4.09-8.93-8.42-8.93-15.51,0-10.18,8.1-24.1,22.49-24.1a23.31,23.31,0,0,1,11.5,3.17Z" style="fill: #fff"/>
          <path d="M114.92,40.13c14.81,0,22.75,5.42,22.75,16.51,0,6-2,13.68-6.2,18.43S120.63,82.41,111,82.41h-1.58L106.16,103H89.29l9.84-62.88Zm-3.3,28.11h.58c5.54,0,8.18-4.26,8.18-8.68,0-3.17-1.73-5.92-5-5.92a9.88,9.88,0,0,0-1.49.08Z" style="fill: #fff"/>
          <path d="M158,104.09c-12.49,0-19.35-9.34-19.35-24.6,0-17.43,9.84-40.44,29.52-40.44,12.41,0,19.44,9.42,19.44,24.6C187.56,81.74,177.22,104.09,158,104.09Zm12.41-39.86c0-6.67-1.74-9.34-4.72-9.34-7.44,0-9.92,18.27-9.92,24.27s1.65,9.09,4.71,9.09C167.71,88.25,170.36,71,170.36,64.23Z" style="fill: #fff"/>
          <path d="M215.59,40.13c15.46,0,21.91,5.59,21.91,15.93,0,9.67-4.3,17.76-12.57,20.76L233.37,103H215.09l-5.21-26.19-.25.17c-.33,3.42-.58,5.59-1.15,9.26L205.83,103H189l9.84-62.88Zm-2,13.51c-1.57,10.18-1.24,7.59-2.48,15.51a5.8,5.8,0,0,0,1.24.09c4.72,0,8.11-4.84,8.11-9.93,0-3.92-2.48-5.67-6.21-5.67Z" style="fill: #fff"/>
          <path d="M279.7,40.13l-2.4,15.35h-9.67L260.18,103H243.31l7.45-47.53h-9.27l2.4-15.35Z" style="fill: #fff"/>
          <path d="M325.8,40.13,300.74,83c-1.16,2-2.48,4-3.64,5.92,2.56-.25,6.53-.75,9.1-.75h10L313.89,103H271l23.24-39.78a69.79,69.79,0,0,1,6.2-8.75c-3.89.25-8.11.5-9.35.5h-8.85l2.32-14.85Z" style="fill: #fff"/>
        </g>
      </g>
    </g>
  </g>
</svg>
